<svg xmlns="http://www.w3.org/2000/svg" viewBox="0 0 32 32" width="32" height="32">
  <defs>
    <linearGradient id="grad1" x1="0%" y1="0%" x2="100%" y2="100%">
      <stop offset="0%" style="stop-color:#3B82F6;stop-opacity:1" />
      <stop offset="50%" style="stop-color:#6366F1;stop-opacity:1" />
      <stop offset="100%" style="stop-color:#06B6D4;stop-opacity:1" />
    </linearGradient>
  </defs>
  
  <!-- Background circle -->
  <circle cx="16" cy="16" r="14" fill="url(#grad1)" stroke="#1E40AF" stroke-width="1"/>
  
  <!-- Brain/AI symbol -->
  <path d="M10 12c0-1.5 1-3 3-3s3 1.5 3 3c1 0 2 1 2 2s-1 2-2 2c0 1.5-1 3-3 3s-3-1.5-3-3c-1 0-2-1-2-2s1-2 2-2z" 
        fill="white" opacity="0.9"/>
  
  <!-- Circuit lines -->
  <line x1="8" y1="16" x2="12" y2="16" stroke="white" stroke-width="1.5" opacity="0.7"/>
  <line x1="20" y1="16" x2="24" y2="16" stroke="white" stroke-width="1.5" opacity="0.7"/>
  <line x1="16" y1="8" x2="16" y2="12" stroke="white" stroke-width="1.5" opacity="0.7"/>
  <line x1="16" y1="20" x2="16" y2="24" stroke="white" stroke-width="1.5" opacity="0.7"/>
  
  <!-- Small dots -->
  <circle cx="7" cy="16" r="1" fill="white" opacity="0.8"/>
  <circle cx="25" cy="16" r="1" fill="white" opacity="0.8"/>
  <circle cx="16" cy="7" r="1" fill="white" opacity="0.8"/>
  <circle cx="16" cy="25" r="1" fill="white" opacity="0.8"/>
</svg>
