<svg xmlns="http://www.w3.org/2000/svg" viewBox="0 0 192 192" width="192" height="192">
  <defs>
    <linearGradient id="grad1" x1="0%" y1="0%" x2="100%" y2="100%">
      <stop offset="0%" style="stop-color:#3B82F6;stop-opacity:1" />
      <stop offset="50%" style="stop-color:#6366F1;stop-opacity:1" />
      <stop offset="100%" style="stop-color:#06B6D4;stop-opacity:1" />
    </linearGradient>
  </defs>
  
  <!-- Background circle -->
  <circle cx="96" cy="96" r="84" fill="url(#grad1)" stroke="#1E40AF" stroke-width="6"/>
  
  <!-- Brain/AI symbol -->
  <path d="M60 72c0-9 6-18 18-18s18 9 18 18c6 0 12 6 12 12s-6 12-12 12c0 9-6 18-18 18s-18-9-18-18c-6 0-12-6-12-12s6-12 12-12z" 
        fill="white" opacity="0.9"/>
  
  <!-- Circuit lines -->
  <line x1="48" y1="96" x2="72" y2="96" stroke="white" stroke-width="9" opacity="0.7"/>
  <line x1="120" y1="96" x2="144" y2="96" stroke="white" stroke-width="9" opacity="0.7"/>
  <line x1="96" y1="48" x2="96" y2="72" stroke="white" stroke-width="9" opacity="0.7"/>
  <line x1="96" y1="120" x2="96" y2="144" stroke="white" stroke-width="9" opacity="0.7"/>
  
  <!-- Small dots -->
  <circle cx="42" cy="96" r="6" fill="white" opacity="0.8"/>
  <circle cx="150" cy="96" r="6" fill="white" opacity="0.8"/>
  <circle cx="96" cy="42" r="6" fill="white" opacity="0.8"/>
  <circle cx="96" cy="150" r="6" fill="white" opacity="0.8"/>
</svg>
